PathFileType	4	(X/Y/Z)	/Users/itak/Documents/Research/Walk-IL/dataset/trc/00569_00009.trc
DataRate	CameraRate	NumFrames	NumMarkers	Units	OrigDataRate	OrigDataStartFrame	OrigNumFrames
100.000000	100.000000	4	53	mm	100.000000	140	561
Frame#	Time	RPSI			LPSI			L3			STRN			T10			C7			CLAV			RBAK			LBAK			LSHO			LUPA			LAEL			LAOL			LWTS			LWPS			LFRA			LIFD			LHPS			LHTS			RSHO			RUPA			RAEL			RAOL			RWTS			RWPS			RFRA			RIFD			RHTS			RHPS			RBHD			LFHD			RFHD			LBHD			LHIP			RHIP			RASI			LASI			LKNE			LTHI			LANK			LTIP			LTOE			LMT1			LMT5			LHEE			RKNE			RTHI			RANK			RTIP			RTOE			RMT1			RMT5			RHEE			
		X1	Y1	Z1	X2	Y2	Z2	X3	Y3	Z3	X4	Y4	Z4	X5	Y5	Z5	X6	Y6	Z6	X7	Y7	Z7	X8	Y8	Z8	X9	Y9	Z9	X10	Y10	Z10	X11	Y11	Z11	X12	Y12	Z12	X13	Y13	Z13	X14	Y14	Z14	X15	Y15	Z15	X16	Y16	Z16	X17	Y17	Z17	X18	Y18	Z18	X19	Y19	Z19	X20	Y20	Z20	X21	Y21	Z21	X22	Y22	Z22	X23	Y23	Z23	X24	Y24	Z24	X25	Y25	Z25	X26	Y26	Z26	X27	Y27	Z27	X28	Y28	Z28	X29	Y29	Z29	X30	Y30	Z30	X31	Y31	Z31	X32	Y32	Z32	X33	Y33	Z33	X34	Y34	Z34	X35	Y35	Z35	X36	Y36	Z36	X37	Y37	Z37	X38	Y38	Z38	X39	Y39	Z39	X40	Y40	Z40	X41	Y41	Z41	X42	Y42	Z42	X43	Y43	Z43	X44	Y44	Z44	X45	Y45	Z45	X46	Y46	Z46	X47	Y47	Z47	X48	Y48	Z48	X49	Y49	Z49	X50	Y50	Z50	X51	Y51	Z51	X52	Y52	Z52	X53	Y53	Z53	

141	1.4	-1201.856567382812	1012.875793457031	-195.8948211669922	-1196.485717773438	1018.128295898438	-330.0205078125	-1186.851928710938	1108.550537109375	-267.4400939941406	-940.2100219726562	1280.071899414062	-280.5758666992188	-1185.359741210938	1235.0546875	-269.302734375	-1117.988891601562	1505.626831054688	-263.0108337402344	-952.7230224609375	1391.912841796875	-281.6520690917969	-1194.1337890625	1385.374755859375	-173.9296875	-1161.27001953125	1454.135131835938	-350.7041320800781	-1069.246337890625	1470.559936523438	-440.5771179199219	-1095.580810546875	1344.147094726562	-515.7537841796875	-1091.032958984375	1123.00048828125	-540.1509399414062	-1175.6865234375	1120.331909179688	-484.53173828125	-1014.390686035156	875.2714233398438	-494.308837890625	-1062.992797851562	855.04931640625	-563.6568603515625	-1074.574462890625	1035.501586914062	-547.5034790039062	-1031.196899414062	707.58154296875	-492.691162109375	-1059.721801757812	795.2903442382812	-555.6845092773438	-1004.027526855469	796.8143920898438	-515.2532348632812	-1056.868041992188	1464.927124023438	-110.373908996582	-1076.835083007812	1401.28466796875	-41.39128494262695	-1097.55126953125	1113.147827148438	5.407839775085449	-1152.746337890625	1098.359130859375	-21.6049633026123	-970.4721069335938	889.0369262695312	-37.74320983886719	-1016.219665527344	869.0498046875	28.82586860656738	-1088.51220703125	1057.117309570312	11.31462478637695	-969.1131591796875	715.3825073242188	-38.11808776855469	-944.6879272460938	796.3360595703125	-23.48542404174805	-1001.232421875	794.2435913085938	25.13319206237793	-1010.272766113281	1682.758422851562	-205.3676147460938	-849.9751586914062	1673.565063476562	-336.9325866699219	-870.298828125	1676.095825195312	-194.6455230712891	-979.8487548828125	1677.199096679688	-368.1847229003906	-1076.034912109375	929.5919799804688	-461.9278564453125	-1078.887329101562	936.085693359375	-73.61670684814453	-993.0305786132812	965.5498046875	-134.2731628417969	-994.2106323242188	950.8690795898438	-410.05517578125	-1079.925415039062	484.9104614257812	-381.9276123046875	-1067.0087890625	647.968994140625	-427.1509399414062	-1183.978637695312	24.10236549377441	-344.791259765625	-1156.016479492188	243.6071166992188	-371.1434020996094	-971.9678344726562	38.36708831787109	-287.4952697753906	-1043.987915039062	43.73191070556641	-252.7418060302734	-1061.1953125	30.10005760192871	-359.9513244628906	-1252.735717773438	27.32931709289551	-287.9901123046875	-975.0046997070312	501.1245422363281	-118.6291122436523	-1018.941223144531	786.277099609375	-80.95682525634766	-1178.102783203125	65.85054779052734	-111.040901184082	-1005.658020019531	355.3285827636719	-123.5838775634766	-964.4071655273438	48.54963684082031	-160.7723236083984	-1030.803100585938	44.56459808349609	-198.7166290283203	-1048.067016601562	54.36935043334961	-99.30204772949219	-1236.649780273438	60.68464279174805	-159.7980041503906	
142	1.41	-1199.966552734375	1012.568603515625	-196.2914276123047	-1194.485961914062	1017.896423339844	-330.4389343261719	-1184.919067382812	1108.585327148438	-267.9105834960938	-937.9781494140625	1279.760986328125	-280.3831176757812	-1183.204833984375	1235.048828125	-269.7681884765625	-1115.444458007812	1505.532592773438	-263.3098449707031	-950.2506713867188	1391.64697265625	-281.4547424316406	-1191.956909179688	1385.401489257812	-174.353759765625	-1158.56494140625	1454.112670898438	-351.1039733886719	-1066.25537109375	1470.341064453125	-440.7342834472656	-1092.262573242188	1343.917602539062	-515.9990844726562	-1087.298950195312	1122.75830078125	-540.3175659179688	-1172.188232421875	1119.953247070312	-485.0728759765625	-1010.584289550781	875.0422973632812	-494.1402893066406	-1058.858154296875	854.8580932617188	-563.7479248046875	-1070.685302734375	1035.262573242188	-547.5728149414062	-1027.859375	707.1487426757812	-492.1777038574219	-1055.601806640625	795.0916137695312	-555.7830810546875	-1000.689270019531	796.3983764648438	-514.6254272460938	-1054.7529296875	1464.812622070312	-110.4564971923828	-1074.96923828125	1401.20703125	-41.52161407470703	-1096.158203125	1113.1044921875	5.278258800506592	-1151.324462890625	1098.366088867188	-21.82023048400879	-969.1014404296875	889.0635986328125	-37.63541412353516	-1014.8818359375	869.0026245117188	28.77567481994629	-1087.115356445312	1057.077026367188	11.16713333129883	-967.615234375	715.3820190429688	-38.15111923217773	-943.2011108398438	796.3267211914062	-23.44772911071777	-999.875	794.2075805664062	25.0735912322998	-1007.308410644531	1682.579956054688	-205.4778442382812	-846.8735961914062	1672.843872070312	-336.8323974609375	-867.3872680664062	1675.542602539062	-194.5649871826172	-976.700439453125	1676.786499023438	-368.2525329589844	-1073.902709960938	929.3694458007812	-462.2864074707031	-1076.626708984375	936.2800903320312	-74.01833343505859	-991.1423950195312	965.6952514648438	-134.7403259277344	-992.1531372070312	950.6360473632812	-410.4250793457031	-1078.827026367188	484.7116088867188	-382.0334777832031	-1065.503540039062	647.7448120117188	-427.2565307617188	-1184.015747070312	24.07873916625977	-344.7952880859375	-1155.541015625	243.5559844970703	-371.2057495117188	-971.9365234375	38.37513732910156	-287.4851684570312	-1043.932373046875	43.81894302368164	-252.7696075439453	-1061.190795898438	30.09730529785156	-359.9569091796875	-1252.769287109375	27.31851959228516	-288.0072021484375	-967.1387329101562	502.4859008789062	-118.7022705078125	-1014.986328125	787.1141357421875	-81.42701721191406	-1173.525268554688	68.55397796630859	-111.8041839599609	-998.475830078125	356.7457580566406	-123.82958984375	-959.704345703125	49.99314117431641	-160.5011444091797	-1025.91357421875	46.18449020385742	-198.8525390625	-1043.6484375	56.33596801757812	-99.39759826660156	-1231.796997070312	63.715576171875	-160.9208374023438	
143	1.42	-1197.926147460938	1012.323486328125	-196.6064605712891	-1192.410522460938	1017.68505859375	-330.777099609375	-1182.875122070312	1108.639526367188	-268.3333740234375	-935.6400756835938	1279.4736328125	-280.208740234375	-1180.931884765625	1235.056274414062	-270.2127380371094	-1112.803344726562	1505.4521484375	-263.5663146972656	-947.6854858398438	1391.402954101562	-281.2366333007812	-1189.6767578125	1385.4228515625	-174.7582702636719	-1155.765258789062	1454.116455078125	-351.4663696289062	-1063.17626953125	1470.180053710938	-440.8510437011719	-1088.847534179688	1343.745483398438	-516.215576171875	-1083.471069335938	1122.572875976562	-540.437744140625	-1168.562744140625	1119.619873046875	-485.5680541992188	-1006.58544921875	874.9030151367188	-493.8733520507812	-1054.52685546875	854.736328125	-563.7420043945312	-1066.652099609375	1035.080200195312	-547.5784912109375	-1024.219116210938	706.8152465820312	-491.634521484375	-1051.266845703125	794.9511108398438	-555.7752685546875	-997.0482177734375	796.0817260742188	-513.9678955078125	-1052.54150390625	1464.682250976562	-110.5059127807617	-1073.016357421875	1401.116088867188	-41.6300163269043	-1094.731567382812	1113.0556640625	5.172236919403076	-1149.868286132812	1098.369018554688	-22.01984405517578	-967.7523803710938	889.0109252929688	-37.44915390014648	-1013.550354003906	868.9348754882812	28.77555847167969	-1085.690307617188	1057.02587890625	11.03732299804688	-966.1178588867188	715.3487548828125	-38.11988830566406	-941.71728515625	796.2841186523438	-23.32380294799805	-998.5364990234375	794.1443481445312	25.07852935791016	-1004.273071289062	1682.406982421875	-205.5026702880859	-843.7097778320312	1672.175537109375	-336.6593017578125	-864.3995361328125	1675.009033203125	-194.4066467285156	-973.4931030273438	1676.418334960938	-368.2377319335938	-1071.7646484375	929.136474609375	-462.6151428222656	-1074.153198242188	936.5602416992188	-74.39599609375	-989.0736083984375	965.8818969726562	-135.2418212890625	-990.0760498046875	950.3926391601562	-410.829345703125	-1077.634643554688	484.509033203125	-382.109375	-1063.970581054688	647.51611328125	-427.3383178710938	-1184.054809570312	24.06448745727539	-344.7852478027344	-1155.025024414062	243.5224914550781	-371.2235107421875	-971.9102783203125	38.38271331787109	-287.4736938476562	-1043.872680664062	43.89879608154297	-252.7963104248047	-1061.1904296875	30.09793663024902	-359.9624328613281	-1252.796752929688	27.31006240844727	-288.016357421875	-959.3646850585938	503.9335021972656	-118.6985702514648	-1010.975524902344	788.0189819335938	-81.76869964599609	-1168.082641601562	70.97663879394531	-112.6176376342773	-991.1010131835938	358.2171325683594	-124.0498275756836	-954.1138916015625	51.35795211791992	-160.3134765625	-1020.14306640625	47.71858978271484	-199.0648498535156	-1038.339599609375	58.17569351196289	-99.56529235839844	-1226.074462890625	66.37068176269531	-162.0796051025391	
144	1.43	-1195.740356445312	1012.128601074219	-196.8380432128906	-1190.258178710938	1017.485412597656	-331.0302429199219	-1180.7236328125	1108.706420898438	-268.7041015625	-933.1903076171875	1279.202514648438	-280.0587768554688	-1178.540405273438	1235.072143554688	-270.6316833496094	-1110.057739257812	1505.379272460938	-263.7796020507812	-945.0216064453125	1391.171997070312	-281.0052795410156	-1187.287475585938	1385.434448242188	-175.1417846679688	-1152.867309570312	1454.141235351562	-351.7925415039062	-1060.005859375	1470.071166992188	-440.93017578125	-1085.337280273438	1343.626953125	-516.4073486328125	-1079.553466796875	1122.437866210938	-540.5164184570312	-1164.818725585938	1119.327270507812	-486.025634765625	-1002.388488769531	874.8572387695312	-493.50390625	-1049.994018554688	854.677001953125	-563.6325073242188	-1062.477416992188	1034.950317382812	-547.5231323242188	-1020.260375976562	706.5880126953125	-491.060546875	-1046.708740234375	794.8632202148438	-555.6527709960938	-993.0887451171875	795.8713989257812	-513.2796020507812	-1050.222290039062	1464.526123046875	-110.5261154174805	-1070.963989257812	1401.001831054688	-41.71956634521484	-1093.261352539062	1112.994018554688	5.089480400085449	-1148.36962890625	1098.358642578125	-22.20082473754883	-966.4213256835938	888.8562622070312	-37.19515609741211	-1012.220947265625	868.8353271484375	28.82624626159668	-1084.228881835938	1056.955322265625	10.92533206939697	-964.6212158203125	715.2702026367188	-38.02094650268555	-940.23779296875	796.1947021484375	-23.11177253723145	-997.213623046875	794.0413818359375	25.14711761474609	-1001.167297363281	1682.228149414062	-205.4429321289062	-840.4820556640625	1671.561157226562	-336.4132995605469	-861.3351440429688	1674.490600585938	-194.1709136962891	-970.2249755859375	1676.091186523438	-368.1404724121094	-1069.630004882812	928.8854370117188	-462.9031677246094	-1071.478149414062	936.912109375	-74.74151611328125	-986.8212280273438	966.1016235351562	-135.7690582275391	-987.9757690429688	950.1375122070312	-411.2645874023438	-1076.336669921875	484.3011169433594	-382.158447265625	-1062.403442382812	647.2806396484375	-427.4006958007812	-1184.094970703125	24.05994987487793	-344.761474609375	-1154.461547851562	243.5022277832031	-371.1939697265625	-971.8927001953125	38.38877868652344	-287.4613342285156	-1043.813110351562	43.96725082397461	-252.8214874267578	-1061.19482421875	30.10246086120605	-359.9678955078125	-1252.817626953125	27.30437088012695	-288.0172729492188	-951.7066040039062	505.4489135742188	-118.6180801391602	-1006.926513671875	788.9720458984375	-81.98523712158203	-1161.727661132812	73.03068542480469	-113.4760055541992	-983.535400390625	359.7127075195312	-124.2345962524414	-947.5904541015625	52.62174606323242	-160.2054443359375	-1013.438354492188	49.12474822998047	-199.3422698974609	-1032.095947265625	59.82048034667969	-99.79732513427734	-1219.439208984375	68.57009124755859	-163.2673797607422	
